<svg xmlns="http://www.w3.org/2000/svg" xmlns:xlink="http://www.w3.org/1999/xlink" width="96" height="96" viewBox="0 0 96 96">
    <defs>
        <linearGradient id="a" x1="32.03" x2="43.69" y1="52.4" y2="52.4" gradientUnits="userSpaceOnUse">
            <stop offset="0" stop-color="#b4b4b4"/>
            <stop offset="1" stop-color="#646464"/>
        </linearGradient>
        <linearGradient id="b" x1="32.03" x2="43.69" y1="52.4" y2="52.4" gradientUnits="userSpaceOnUse">
            <stop offset="0"/>
            <stop offset="1" stop-color="#464646"/>
        </linearGradient>
        <linearGradient id="g" x1="30.48" x2="43.69" y1="51.57" y2="51.57" gradientTransform="translate(-5.5495 -2.0858) scale(1.21998)" xlink:href="#a"/>
        <linearGradient id="h" x1="33.73" x2="43.69" y1="46.39" y2="46.39" gradientTransform="translate(-5.5495 -2.0858) scale(1.21998)" xlink:href="#a"/>
        <linearGradient id="i" x1="32.99" x2="43.69" y1="45.64" y2="45.64" gradientTransform="translate(-5.5495 -2.0858) scale(1.21998)" xlink:href="#a"/>
        <linearGradient id="j" x1="35.41" x2="43.69" y1="40.64" y2="40.64" gradientTransform="translate(-5.5495 -2.0858) scale(1.21998)" xlink:href="#a"/>
        <linearGradient id="k" x1="34.77" x2="43.69" y1="39.9" y2="39.9" gradientTransform="translate(-5.5495 -2.0858) scale(1.21998)" xlink:href="#a"/>
        <linearGradient id="l" x1="37.45" x2="43.69" y1="34.89" y2="34.89" gradientTransform="translate(-5.5495 -2.0858) scale(1.21998)" xlink:href="#a"/>
        <linearGradient id="m" x1="36.2" x2="43.69" y1="34.47" y2="34.47" gradientTransform="translate(-5.5495 -2.0858) scale(1.21998)" xlink:href="#a"/>
        <linearGradient id="n" x1="41.92" x2="52.6" y1="52.71" y2="52.71" gradientTransform="translate(-5.5495 -2.0858) scale(1.21998)" xlink:href="#b"/>
        <linearGradient id="o" x1="41.92" x2="53.74" y1="51.49" y2="51.49" gradientTransform="translate(-5.5495 -2.0858) scale(1.21998)" xlink:href="#b"/>
        <linearGradient id="p" x1="41.92" x2="51.05" y1="46.47" y2="46.47" gradientTransform="translate(-5.5495 -2.0858) scale(1.21998)" xlink:href="#b"/>
        <linearGradient id="q" x1="41.92" x2="51.56" y1="45.58" y2="45.58" gradientTransform="translate(-5.5495 -2.0858) scale(1.21998)" xlink:href="#b"/>
        <linearGradient id="r" x1="41.92" x2="49.26" y1="40.92" y2="40.92" gradientTransform="translate(-5.5495 -2.0858) scale(1.21998)" xlink:href="#b"/>
        <linearGradient id="s" x1="41.92" x2="50.52" y1="39.9" y2="39.9" gradientTransform="translate(-5.5495 -2.0858) scale(1.21998)" xlink:href="#b"/>
        <linearGradient id="t" x1="42.29" x2="47.99" y1="34.89" y2="34.89" gradientTransform="translate(-5.5495 -2.0858) scale(1.21998)" xlink:href="#b"/>
        <linearGradient id="u" x1="41.92" x2="48.56" y1="34.38" y2="34.38" gradientTransform="translate(-5.5495 -2.0858) scale(1.21998)" xlink:href="#b"/>
        <linearGradient id="w" x1="37.82" x2="35.19" y1="37.54" y2="36.59" gradientTransform="translate(-5.5495 -2.0858) scale(1.21998)" gradientUnits="userSpaceOnUse">
            <stop offset="0"/>
            <stop offset="1" stop-color="#e6e6e6"/>
        </linearGradient>
        <linearGradient id="v" x1="46.63" x2="50.35" y1="37.74" y2="36.39" gradientTransform="translate(-5.5495 -2.0858) scale(1.21998)" gradientUnits="userSpaceOnUse">
            <stop offset="0" stop-color="#646464"/>
            <stop offset="1"/>
        </linearGradient>
        <linearGradient id="x" x1="41.92" x2="43.69" y1="40.2" y2="40.2" gradientTransform="translate(-5.5495 -2.0858) scale(1.21998)" gradientUnits="userSpaceOnUse">
            <stop offset="0" stop-color="#e6e6e6"/>
            <stop offset="1"/>
        </linearGradient>
        <linearGradient id="e" x1="69.46" x2="36.12" y1="49.26" y2=".66" gradientTransform="matrix(1.4073 0 0 1.21998 -2.751 .1222)" gradientUnits="userSpaceOnUse">
            <stop offset="0" stop-color="#e6e6e6"/>
            <stop offset="1" stop-color="#fff"/>
        </linearGradient>
        <linearGradient id="d" x1="7.89" x2="26.88" y1="45.9" y2="4.32" gradientTransform="matrix(1.85949 -.23821 0 1.21998 -13.1752 4.2635)" gradientUnits="userSpaceOnUse">
            <stop offset="0" stop-color="#e6e6e6"/>
            <stop offset="1" stop-color="#fff"/>
        </linearGradient>
        <linearGradient id="f" x1="32.03" x2="43.69" y1="52.4" y2="52.4" gradientTransform="translate(-5.5495 -2.0858) scale(1.21998)" gradientUnits="userSpaceOnUse" xlink:href="#a"/>
        <linearGradient id="c" x1="35.15" x2="35.33" y1="48.05" y2="78.13" gradientTransform="matrix(1.37004 0 0 1.21998 -.144 .1222)" gradientUnits="userSpaceOnUse">
            <stop offset="0"/>
            <stop offset="1" stop-color="#646464"/>
        </linearGradient>
    </defs>
    <title>
        icon_well
    </title>
    <path fill="url(#c)" d="M48.4379 54.9723L1.1712 75.2726 48.2598 95.439l46.5815-20.5566z"/>
    <path d="M48.471 96L0 75.2604 48.6492 54.399l47.7847 20.4834zM2.6213 75.2604l45.8496 19.605 45.3694-19.971-45.191-19.3731z"/>
    <path fill="url(#d)" d="M36.8078 43.036L1.496 58.381V19.1953L36.8078 3.1306z"/>
    <g transform="translate(-45.7966 10.9322)">
        <path fill="#cc9971" d="M47.3927 54.321l47.4039 20.7468 46-21-46-20z"/>
        <ellipse cx="117.576" cy="53.7055" fill="#7b5728" rx="1" ry=".5"/>
        <ellipse cx="114.7403" cy="44.5486" fill="#7b5728" rx="1" ry=".5"/>
        <ellipse cx="76.872" cy="56.4231" fill="#7b5728" rx="1" ry=".5"/>
        <ellipse cx="97.608" cy="45.4938" fill="#7b5728" rx="1" ry=".5"/>
        <ellipse cx="97.7262" cy="68.2975" fill="#af7949" rx="1" ry=".5"/>
        <ellipse cx="102.984" cy="61.1492" fill="#7b5728" rx="1" ry=".5"/>
        <ellipse cx="85.4972" cy="63.0988" fill="#7b5728" rx="1" ry=".5"/>
        <ellipse cx="93.768" cy="53.7055" fill="#a8703f" rx="1" ry=".5"/>
        <ellipse cx="79.1169" cy="48.0932" fill="#7b5728" rx="1" ry=".5"/>
        <ellipse cx="68.6012" cy="60.4403" fill="#845e30" rx="1" ry=".5"/>
        <ellipse cx="91.5822" cy="39.9406" fill="#7b5728" rx="1" ry=".5"/>
        <ellipse cx="61.6892" cy="53.7055" fill="#7b5728" rx="1" ry=".5"/>
        <ellipse cx="127.6782" cy="53.2329" fill="#e4a88f" rx="1" ry=".5"/>
        <ellipse cx="97.1945" cy="40.7677" fill="#af7949" rx="1" ry=".5"/>
        <ellipse cx="101.0345" cy="39.0545" fill="#af7949" rx="1" ry=".5"/>
        <ellipse cx="74.9225" cy="48.2705" fill="#e4a88f" rx="1" ry=".5"/>
        <ellipse cx="66.6517" cy="52.2877" fill="#e4a88f" rx="1" ry=".5"/>
        <ellipse cx="97.0172" cy="57.7228" fill="#af7949" rx="1" ry=".5"/>
        <ellipse cx="102.2751" cy="50.5745" fill="#7b5728" rx="1" ry=".5"/>
        <ellipse cx="67.3015" cy="46.7935" fill="#a8703f" rx="1" ry=".5"/>
        <ellipse cx="75.9268" cy="53.4692" fill="#a8703f" rx="1" ry=".5"/>
        <ellipse cx="86.1471" cy="41.2403" fill="#7b5728" rx="1" ry=".5"/>
        <ellipse cx="91.7594" cy="42.0674" fill="#af7949" rx="1" ry=".5"/>
        <ellipse cx="111.3139" cy="47.8569" fill="#7b5728" rx="1" ry=".5"/>
        <ellipse cx="116.9262" cy="48.684" fill="#af7949" rx="1" ry=".5"/>
        <ellipse cx="115.9219" cy="57.0138" fill="#7b5728" rx="1" ry=".5"/>
        <ellipse cx="121.5342" cy="57.8409" fill="#af7949" rx="1" ry=".5"/>
        <ellipse cx="76.6948" cy="64.3394" fill="#7b5728" rx="1" ry=".5"/>
        <ellipse cx="82.3071" cy="65.1665" fill="#af7949" rx="1" ry=".5"/>
        <ellipse cx="81.5982" cy="50.5154" fill="#7b5728" rx="1" ry=".5"/>
        <ellipse cx="81.4209" cy="58.4317" fill="#7b5728" rx="1" ry=".5"/>
        <ellipse cx="87.0332" cy="59.2588" fill="#af7949" rx="1" ry=".5"/>
        <ellipse cx="68.6012" cy="49.1566" fill="#7b5728" rx="1" ry=".5"/>
        <ellipse cx="68.424" cy="57.0729" fill="#7b5728" rx="1" ry=".5"/>
        <ellipse cx="74.0363" cy="57.9" fill="#af7949" rx="1" ry=".5"/>
        <ellipse cx="99.0258" cy="48.3886" fill="#7b5728" rx="1" ry=".5"/>
        <ellipse cx="98.8486" cy="56.3049" fill="#7b5728" rx="1" ry=".5"/>
        <ellipse cx="104.4609" cy="57.132" fill="#af7949" rx="1" ry=".5"/>
        <ellipse cx="93.0591" cy="62.6262" fill="#7b5728" rx="1" ry=".5"/>
        <ellipse cx="92.8819" cy="70.5425" fill="#7b5728" rx="1" ry=".5"/>
        <ellipse cx="98.4942" cy="71.3695" fill="#af7949" rx="1" ry=".5"/>
        <ellipse cx="96.1311" cy="42.0674" fill="#7b5728" rx="1" ry=".5"/>
        <ellipse cx="95.7175" cy="37.3412" fill="#af7949" rx="1" ry=".5"/>
        <ellipse cx="109.8369" cy="44.4305" fill="#7b5728" rx="1" ry=".5"/>
        <ellipse cx="105.7606" cy="42.5991" fill="#af7949" rx="1" ry=".5"/>
        <ellipse cx="95.1859" cy="49.8065" fill="#7b5728" rx="1" ry=".5"/>
        <ellipse cx="94.7723" cy="45.0803" fill="#af7949" rx="1" ry=".5"/>
        <ellipse cx="99.9711" cy="64.812" fill="#7b5728" rx="1" ry=".5"/>
        <ellipse cx="99.5575" cy="60.0858" fill="#af7949" rx="1" ry=".5"/>
        <ellipse cx="106.824" cy="65.6982" fill="#7b5728" rx="1" ry=".5"/>
        <ellipse cx="106.4105" cy="60.972" fill="#af7949" rx="1" ry=".5"/>
        <ellipse cx="93.3545" cy="72.3738" fill="#7b5728" rx="1" ry=".5"/>
        <ellipse cx="92.9409" cy="67.6477" fill="#af7949" rx="1" ry=".5"/>
        <ellipse cx="72.1459" cy="56.2458" fill="#7b5728" rx="1" ry=".5"/>
        <ellipse cx="71.7323" cy="51.5197" fill="#af7949" rx="1" ry=".5"/>
        <ellipse cx="81.1846" cy="56.6003" fill="#7b5728" rx="1" ry=".5"/>
        <ellipse cx="80.7711" cy="51.8742" fill="#af7949" rx="1" ry=".5"/>
        <ellipse cx="62.6936" cy="55.596" fill="#7b5728" rx="1" ry=".5"/>
        <ellipse cx="62.28" cy="50.8698" fill="#af7949" rx="1" ry=".5"/>
        <ellipse cx="66.0019" cy="58.9043" fill="#7b5728" rx="1" ry=".5"/>
        <ellipse cx="65.5883" cy="54.1782" fill="#af7949" rx="1" ry=".5"/>
        <ellipse cx="80.5939" cy="66.9978" fill="#7b5728" rx="1" ry=".5"/>
        <ellipse cx="80.1803" cy="62.2717" fill="#af7949" rx="1" ry=".5"/>
        <ellipse cx="56.9631" cy="55.8914" fill="#7b5728" rx="1" ry=".5"/>
        <ellipse cx="56.5496" cy="51.1652" fill="#af7949" rx="1" ry=".5"/>
        <ellipse cx="54.7772" cy="54.3554" fill="#7b5728" rx="1" ry=".5"/>
        <ellipse cx="57.672" cy="52.9375" fill="#af7949" rx="1" ry=".5"/>
        <ellipse cx="78.9397" cy="44.1941" fill="#7b5728" rx="1" ry=".5"/>
        <ellipse cx="87.2695" cy="47.7979" fill="#af7949" rx="1" ry=".5"/>
        <ellipse cx="112.968" cy="51.8741" fill="#7b5728" rx="1" ry=".5"/>
        <ellipse cx="115.8628" cy="50.4563" fill="#af7949" rx="1" ry=".5"/>
        <ellipse cx="98.1988" cy="53.3511" fill="#7b5728" rx="1" ry=".5"/>
        <ellipse cx="101.0935" cy="51.9332" fill="#af7949" rx="1" ry=".5"/>
        <ellipse cx="72.264" cy="61.9763" fill="#7b5728" rx="1" ry=".5"/>
        <ellipse cx="75.1588" cy="60.5585" fill="#af7949" rx="1" ry=".5"/>
        <ellipse cx="114.2677" cy="57.7818" fill="#7b5728" rx="1" ry=".5"/>
        <ellipse cx="112.6136" cy="61.0901" fill="#7b5728" rx="1" ry=".5"/>
        <ellipse cx="118.2259" cy="61.9172" fill="#af7949" rx="1" ry=".5"/>
        <ellipse cx="109.6597" cy="55.9504" fill="#7b5728" rx="1" ry=".5"/>
        <ellipse cx="124.3698" cy="51.5787" fill="#7b5728" rx="1" ry=".5"/>
        <ellipse cx="122.7157" cy="54.887" fill="#7b5728" rx="1" ry=".5"/>
        <ellipse cx="128.328" cy="55.7141" fill="#af7949" rx="1" ry=".5"/>
        <ellipse cx="119.7618" cy="49.7473" fill="#7b5728" rx="1" ry=".5"/>
        <ellipse cx="129.096" cy="51.1061" fill="#7b5728" rx="1" ry=".5"/>
        <ellipse cx="127.4419" cy="54.4144" fill="#7b5728" rx="1" ry=".5"/>
        <ellipse cx="133.0542" cy="55.2415" fill="#af7949" rx="1" ry=".5"/>
        <ellipse cx="124.488" cy="49.2747" fill="#7b5728" rx="1" ry=".5"/>
        <ellipse cx="111.6092" cy="43.1898" fill="#7b5728" rx="1" ry=".5"/>
        <ellipse cx="109.9551" cy="46.4981" fill="#7b5728" rx="1" ry=".5"/>
        <ellipse cx="115.5674" cy="47.3252" fill="#af7949" rx="1" ry=".5"/>
        <ellipse cx="107.0012" cy="41.3584" fill="#7b5728" rx="1" ry=".5"/>
        <ellipse cx="88.5101" cy="61.9172" fill="#7b5728" rx="1" ry=".5"/>
        <ellipse cx="86.856" cy="65.2255" fill="#7b5728" rx="1" ry=".5"/>
        <ellipse cx="92.4684" cy="66.0526" fill="#af7949" rx="1" ry=".5"/>
        <ellipse cx="83.9022" cy="60.0858" fill="#7b5728" rx="1" ry=".5"/>
        <ellipse cx="99.6166" cy="62.4489" fill="#7b5728" rx="1" ry=".5"/>
        <ellipse cx="97.9625" cy="65.7572" fill="#7b5728" rx="1" ry=".5"/>
        <ellipse cx="103.5748" cy="66.5843" fill="#af7949" rx="1" ry=".5"/>
        <ellipse cx="95.0086" cy="60.6175" fill="#7b5728" rx="1" ry=".5"/>
    </g>
    <path d="M.4797 59.7172V19.1147L37.308 2.2164v41.3897zM2.022 19.52v38.4l33.7438-14.7684V4.0623zm46.4506 66.891L.0017 65.6714 48.651 44.822l47.7848 20.4712L48.4724 86.411zM2.6229 65.6714l45.8495 19.6173 45.3694-19.9832c-15.0637-6.4534-30.1274-12.9072-45.191-19.3608L2.623 65.6714z"/>
    <path fill="url(#e)" d="M95 60.2182V20.3006L48.0806.9274v40.0518z"/>
    <path d="M95.723 61.0112L47.568 41.2964V.1222l48.155 19.849zm-46.9852-20.398l45.8155 18.8V20.6178L48.7378 1.7204zM1.6048 28.8296L36.3912 13.208c.722.5006.5898.9097-.53 1.2129L2.2018 29.5365zm.004-2.8864l34.7865-15.6217c.7221.5006.5898.9097-.5299 1.213L2.206 26.6501l-.597-.7068z"/>
    <g fill="#939393">
        <path d="M1.62 32.889l34.7864-15.6217c.7221.5006.5898.9096-.5299 1.2129L2.217 33.5957zm-.008 6.0816l34.7864-15.6214c.722.5005.5898.9095-.5299 1.2128L2.209 39.6776l-.597-.7068zm-.0093 5.6417l34.7866-15.6216c.722.5006.5898.9096-.53 1.2129L2.1998 45.319zm.0162 5.5085l34.7803-15.6292c.7224.5005.5903.9096-.5294 1.213L2.2163 50.8275l-.5972-.7066zm.0053 4.8124l34.7703-15.6144c.722.5006.5897.9097-.53 1.213L2.2212 55.64z"/>
        <path d="M10.0515 24.9207c1.1005-.2782 1.567-.0677 1.3007.708v28.874c-1.1005.2781-1.5671.0675-1.3009-.708v-28.874zm8.7027-3.5865c1.1007-.2781 1.5673-.0676 1.3009.708v28.886c-1.1005.2784-1.5671.0677-1.3009-.7078v-28.886z"/>
    </g>
    <path fill="#ff0400" d="M28.8313 46.9316c-2.4645.3156-.5933-1.6536-2.1004-2.342-1.2953-1.1204-3.7034-1.224-5.2395-2.1024-1.347-1.4209.457-3.4167 1.6498-4.8944 1.4946-1.1527 3.0815-3.2167.4622-3.793-2.6422-.2227-3.0488-2.4543-.8622-3.7226 1.8635-1.2183-1.514-2.672-2.4631-3.319-2.3905-.6807-1.1715-3.0202.6199-4.1121-.0326-.9326-.4723-3.0134 1.3425-2.3602 1.0211 1.5703-.3794 3.1085-1.7088 4.5493-.4613 1.1611 1.9892 1.2725 2.54 2.1036 1.368.856 2.7476 2.6138.6584 3.8388-3.055 2.1163 2.8282 1.861 2.871 3.6681.4166 1.8312-2.2156 3.1665-3.219 4.8052-.4587.797-1.5583 2.1968-.2856 2.696 2.8092.6208 6.2045 1.7279 5.9494 4.1303-.028.2842-.1036.571-.2146.8544z"/>
    <path fill="#939393" d="M27.4571 17.7356c1.1007-.2782 1.5673-.0676 1.301.708v28.5688c-1.1006.2781-1.5672.0676-1.301-.708z"/>
    <path fill="#529bff" d="M18.5161 51.5415c-3.1168.797-.4307-2.5708.3449-3.4383 2.1864-2.266 6.4776-3.128 8.5961-5.4313.2877-1.564 4.5408-1.8805 4.4256-3.27-1.99-.6491-6.4875-1.6364-3.3165-3.6877 1.5436-.7275 4.8862-2.1003 2.125-2.9773-2.0193-.831-4.9853-1.4273-7.2527.0824-2.4572 1.4487-6.0097.8337-6.1125-1.2203-.9931-1.225 2.7225-3.614-.8802-3.361-2.3553-.2881-2.2986-2.3004-2.1682-3.6788.0006-.9656.16-1.9636 1.82-1.5549-.3122 1.4973-1.3553 4.3547 1.8147 4.33 2.8188.1793 1.3611 2.135.7705 3.337-.1183.8804.4847 2.3636 2.215 1.9542 2.7816-1.0976 5.9473-2.431 8.7917-1.37 1.9435.399 4.776 1.5539 3.1792 3.2901-1.0858 1.0138-6.0453 2.4571-2.5574 3.1838 1.4212.329 4.1144.9284 2.8622 2.3532-1.6534 1.5474-4.411 2.1714-5.5017 3.966-2.5976 2.0854-7.0038 3.019-8.522 5.667-.3654.5937-.581 1.2152-.6337 1.8259z"/>
    <g fill="#939393">
        <path d="M57.0042 11.7242c.8035-.1498 1.1785.0806.9762.8232V41.028c-.8035.1497-1.1784-.0807-.9762-.8232zm4.0154 1.647c.8035-.1498 1.1786.0806.9764.823V42.675c-.8035.1498-1.1785-.0806-.9763-.8232V13.3712zm4.0155 1.6957c.8035-.1497 1.1785.0807.9762.8232v28.4806c-.8035.1498-1.1784-.0806-.9762-.8232zm4.0292 1.7445c.8035-.1497 1.1784.0808.9764.8232v28.4807c-.8035.1497-1.1785-.0806-.9763-.8232V16.8114zm4.0155 1.6836c.8035-.1497 1.1785.0807.9762.8232V47.799c-.8035.1497-1.1784-.0808-.9762-.8232zm4.0292 1.6958c.8035-.1497 1.1784.0807.9762.8231v28.4807c-.8035.1498-1.1784-.0807-.9762-.8231zm3.9329 1.9397c.8035-.1497 1.1786.0808.9764.8232v28.4686c-.8036.1497-1.1785-.0806-.9763-.8232V22.1306z"/>
        <path d="M55.8684 15.284c.1942-.7078.5902-.9087 1.2582-.4267l26.6833 11.3114c-.1941.7077-.5901.9086-1.2581.4266zm-.0112 4.7194c.1942-.7078.5902-.9087 1.2581-.4266l26.6834 11.3114c-.1942.7077-.5902.9086-1.2582.4266zm.0025 4.7195c.1942-.7078.5902-.9087 1.2582-.4267l26.6833 11.3114c-.1941.7077-.5901.9086-1.2581.4266zm.0026 4.7195c.1941-.7078.5901-.9086 1.2581-.4267l26.6834 11.3114c-.1942.7077-.5902.9086-1.2582.4267zm.0024 4.7195c.1942-.7077.5903-.9086 1.2583-.4266l26.6833 11.3113c-.1942.7078-.5902.9087-1.2581.4267L55.8648 34.1619zm.0061 4.721c.1942-.7077.59-.9087 1.2582-.4269l26.6732 11.302c-.194.7079-.59.9087-1.258.427z"/>
    </g>
    <path fill="url(#f)" d="M46.6654 68.5996a1.0736 1.0736 0 0 1-.732-.2928L33.868 56.9732a1.0875 1.0875 0 0 1 1.4884-1.586l12.0533 11.3336a1.0858 1.0858 0 0 1 0 1.5372 1.0492 1.0492 0 0 1-.7442.3416z"/>
    <path fill="url(#g)" d="M32.709 62.9267a1.0614 1.0614 0 0 1-1.0615-.9272 1.0858 1.0858 0 0 1 .915-1.22l13.9565-2.0373a1.0736 1.0736 0 0 1 1.22.915 1.0858 1.0858 0 0 1-.915 1.22l-13.9565 2.0373z"/>
    <path fill="url(#h)" d="M46.6654 60.133a1.0858 1.0858 0 0 1-.7198-.2806L35.9296 50.8a1.1058 1.1058 0 0 1 1.4762-1.647l9.9916 9.0279a1.0736 1.0736 0 0 1 .0732 1.525 1.037 1.037 0 0 1-.8052.427z"/>
    <path fill="url(#i)" d="M35.7832 55.5947a1.0858 1.0858 0 0 1-.183-2.1594l10.8944-1.8422a1.0994 1.0994 0 0 1 .4148 2.1594l-10.9798 1.83z"/>
    <path fill="url(#j)" d="M46.6654 52.1787a1.0858 1.0858 0 0 1-.7198-.2806l-7.942-7.1978a1.0977 1.0977 0 0 1 1.4518-1.647l7.942 7.1979a1.0858 1.0858 0 0 1 .0732 1.5371 1.0736 1.0736 0 0 1-.8052.3904z"/>
    <path fill="url(#k)" d="M37.9548 49.1532a1.0858 1.0858 0 0 1-.3538-2.1106l8.7228-3.0011a1.0858 1.0858 0 1 1 .6954 2.0495l-8.6496 3.0622a1.22 1.22 0 0 1-.4148 0z"/>
    <path fill="url(#l)" d="M46.6654 44.1147a1.0736 1.0736 0 0 1-.732-.2928l-5.441-5.0995a1.0858 1.0858 0 0 1-.061-1.525 1.098 1.098 0 0 1 1.5981-.061l5.4411 5.0995a1.0858 1.0858 0 0 1 0 1.5372 1.0492 1.0492 0 0 1-.8052.3416z"/>
    <path fill="url(#m)" d="M39.687 42.248a1.0858 1.0858 0 0 1-.3415-2.1105l6.9782-2.44a1.088 1.088 0 1 1 .6954 2.0617l-6.9783 2.44a.8662.8662 0 0 1-.3538.0488z"/>
    <path fill="url(#n)" d="M46.6654 68.5996a1.0492 1.0492 0 0 1-.7686-.3294 1.098 1.098 0 0 1 0-1.5372l10.87-10.5772a1.098 1.098 0 0 1 1.5372 0 1.0736 1.0736 0 0 1 0 1.525l-10.87 10.5894a1.0492 1.0492 0 0 1-.7686.3294z"/>
    <path fill="url(#o)" d="M58.9384 62.7437h-.1708l-12.1998-1.8666a1.0858 1.0858 0 0 1 .3294-2.135l12.212 1.8423a1.0858 1.0858 0 0 1-.1586 2.1593z"/>
    <path fill="url(#p)" d="M46.6654 59.7426a1.0614 1.0614 0 0 1-.8051-.3538 1.098 1.098 0 0 1 .0854-1.5372l8.979-8.1006a1.0858 1.0858 0 1 1 1.4517 1.6103l-8.979 8.1007a1.037 1.037 0 0 1-.732.2806z"/>
    <path fill="url(#q)" d="M56.2666 55.4483h-.183l-9.6012-1.6714a1.1126 1.1126 0 0 1 .427-2.1838l9.589 1.6714a1.0858 1.0858 0 0 1-.183 2.1594z"/>
    <path fill="url(#r)" d="M46.6654 52.1787a1.098 1.098 0 0 1-.7808-.3294 1.0858 1.0858 0 0 1 0-1.5371l6.7831-6.5025a1.098 1.098 0 0 1 1.5372 0 1.0858 1.0858 0 0 1 0 1.5372l-6.783 6.5024a1.0492 1.0492 0 0 1-.7565.3294z"/>
    <path fill="url(#s)" d="M54.9979 49.1532a.976.976 0 0 1-.366-.0732l-8.3325-2.9646a1.0903 1.0903 0 0 1 .7442-2.0495l8.3203 3.0011a1.0858 1.0858 0 0 1-.366 2.1106z"/>
    <path fill="url(#t)" d="M47.129 44.1147a1.0858 1.0858 0 0 1-.793-1.83l4.7823-5.0995a1.0858 1.0858 0 0 1 1.5372 0 1.1102 1.1102 0 0 1 0 1.5372l-4.7823 5.0995a1.098 1.098 0 0 1-.7442.2928z"/>
    <path fill="url(#u)" d="M52.6065 42.0284a1.0858 1.0858 0 0 1-.378-.0733l-5.9292-2.1714a1.0858 1.0858 0 0 1 .7442-2.0375l5.9656 2.1716a1.0858 1.0858 0 0 1-.3781 2.1106z"/>
    <path fill="url(#v)" d="M60.5364 67.1476a1.0736 1.0736 0 0 1-1.037-.7686l-13.81-45.871a1.0858 1.0858 0 0 1 2.025-.6344L61.549 65.7568a1.0736 1.0736 0 0 1-.7196 1.342.9516.9516 0 0 1-.293.0488z"/>
    <path fill="url(#w)" d="M31.3058 67.1476a1.22 1.22 0 0 1-.3538 0 1.098 1.098 0 0 1-.6831-1.3786l15.4204-45.8954a1.088 1.088 0 1 1 2.0618.6954L32.3794 66.44a1.0858 1.0858 0 0 1-1.0736.7076z"/>
    <path fill="url(#x)" d="M46.6653 74.7724a1.0736 1.0736 0 0 1-1.0736-1.0858V20.203a1.0858 1.0858 0 1 1 2.1594 0v53.5202a1.0858 1.0858 0 0 1-1.0858 1.0492z"/>
    <path fill="#0056e1" d="M62.8177 23.3261c.4694.1442 1.5802-.3533 1.4518.3884v2.5883c-.4693-.144-1.5801.3534-1.4517-.3883V23.326z"/>
    <path fill="#008dfd" d="M64.2573 23.3261c.4692.1442 1.5802-.3533 1.4518.3884v2.5883c-.4693-.144-1.5802.3534-1.4517-.3883V23.326zm-2.8913-2.879c.4693.144 1.5802-.3535 1.4517.3883v2.4909c-.4691-.1443-1.5801.3532-1.4517-.3885v-2.491z"/>
    <path fill="#529bff" d="M59.9143 20.447c.4692.1441 1.5801-.3534 1.4517.3884v2.4909c-.4692-.1443-1.5802.3532-1.4517-.3885v-2.491zm-1.5128 13.0293h2.8792c-.1442.4692.3533 1.5802-.3885 1.4518h-2.4909v-1.4517z"/>
    <path fill="#0056e1" d="M58.3893 32.0246c.4692.1441 1.5802-.3534 1.4517.3884v3.8936c-.4692-.144-1.5801.3534-1.4517-.3883z"/>
    <path fill="#529bff" d="M61.3538 37.8195h4.2944c-.1443.4692.3532 1.5802-.3884 1.4517h-3.906z"/>
    <path fill="#0056e1" d="M62.7811 34.9648c.4693.144 1.5802-.3536 1.4518.3883v3.8937c-.4692-.1441-1.5802.3534-1.4516-.3884v-3.8936z"/>
    <path fill="#529bff" d="M65.7091 40.7108h2.8425v2.9401h-2.8425zm5.7704 0h2.8426v2.9401h-2.8426z"/>
    <path fill="#0056e1" d="M68.6005 32.0123h7.1856c-.1442.4694.3533 1.5802-.3883 1.4518h-6.7973v-1.4517z"/>
    <g fill="#529bff">
        <path d="M70.0278 30.5972c.4693.1442 1.5802-.3533 1.4517.3883v2.4909c-.4691-.1442-1.5801.3533-1.4517-.3884zm2.8792 0c.4691.1442 1.5801-.3533 1.4517.3883v2.4909c-.4692-.1442-1.5802.3533-1.4517-.3884zm-1.4396 4.3187c.4693.1442 1.5802-.3533 1.4517.3883v3.9548c-.4691-.1441-1.5801.3534-1.4517-.3884V34.916z"/>
        <path d="M67.1243 37.8073h5.7582c-.144.4692.3534 1.58-.3883 1.4517h-5.3699z"/>
        <path d="M68.5761 36.3555c.4692.1441 1.5801-.3534 1.4517.3884v2.5029c-.4692-.1441-1.5802.3534-1.4517-.3884z"/>
        <path d="M70.0278 34.928h2.8792c-.1442.4693.3533 1.5803-.3885 1.4519h-2.4907v-1.4517z"/>
    </g>
</svg>

