<?xml version="1.0" encoding="utf-8"?>
<!-- Svg Vector Icons : http://www.onlinewebfonts.com/icon -->
<!DOCTYPE svg PUBLIC "-//W3C//DTD SVG 1.1//EN" "http://www.w3.org/Graphics/SVG/1.1/DTD/svg11.dtd">
<svg version="1.1" xmlns="http://www.w3.org/2000/svg" xmlns:xlink="http://www.w3.org/1999/xlink" x="0px" y="0px" viewBox="0 0 1000 1000" enable-background="new 0 0 1000 1000" xml:space="preserve">
<metadata> Svg Vector Icons : http://www.onlinewebfonts.com/icon </metadata>
<g><g transform="translate(0.000000,512.000000) scale(0.100000,-0.100000)"><path d="M5685.4,4985.7c-145.5-47.9-227.8-101.5-331.2-216.3c-206.8-229.7-354.2-717.9-354.2-1181.2v-101.5l70.8,61.3c160.8,141.7,419.3,224,775.4,247c271.9,17.2,377.2,57.4,503.5,183.8c126.3,124.4,172.3,239.3,172.3,430.8c0,191.4-46,306.3-172.3,430.8C6185.1,5004.8,5919,5064.2,5685.4,4985.7z"/><path d="M3813,4698.5c-97.6-32.5-170.4-80.4-237.4-157c-181.9-212.5-114.9-555.2,137.8-693c72.8-38.3,135.9-53.6,294.8-68.9c281.4-26.8,474.8-103.4,633.7-247l51.7-49.8v105.3c0,145.5-47.9,448-91.9,572.4c-122.5,354.2-323.5,536-606.9,547.5C3922.2,4711.9,3839.8,4708.1,3813,4698.5z"/><path d="M2651,3149.7c-338.9-118.7-497.8-499.7-350.3-840.5c49.8-116.8,174.2-239.3,302.5-298.7c82.3-38.3,128.3-42.1,497.8-47.9c222.1-3.8,405.9-13.4,405.9-23c0-15.3-1834.1-6576.2-1868.5-6685.3c-9.6-32.5,26.8-34.5,603.1-34.5h612.6l40.2,139.7c23,74.7,44,151.3,47.9,166.6c3.8,15.3,24.9,91.9,47.9,166.6l40.2,139.7h1970h1970l40.2-139.7c23-74.7,44-151.3,47.9-166.6c3.8-15.3,24.9-91.9,47.9-166.6l40.2-139.7h612.6c576.3,0,612.6,1.9,603.1,34.5c-34.5,109.1-1868.5,6670-1868.5,6685.3c0,9.6,183.8,19.1,407.8,23c375.3,5.7,413.5,9.6,503.5,49.8c122.5,55.5,241.2,176.1,298.7,300.6c61.3,132.1,61.3,381,3.8,509.2c-59.4,126.4-166.6,237.4-291,298.7l-109.1,53.6l-2278.2,3.8C2880.7,3182.3,2744.8,3180.3,2651,3149.7z M5417.4,1388.4c86.1-312.1,162.7-587.7,168.5-610.7l11.5-44H5000h-597.3l9.6,44c7.7,23,84.2,298.7,170.4,610.7l158.9,570.5H5000h258.5L5417.4,1388.4z M5986-644.8l212.5-756.2l-599.2-5.7c-329.3-1.9-869.2-1.9-1198.4,0l-599.2,5.7l206.8,737.1C4121.3-258,4218.9,84.6,4224.6,98c5.7,19.1,172.3,23,779.2,19.1l769.6-5.7L5986-644.8z M6579.4-2764.1c113-409.7,210.6-754.3,216.3-765.8c5.7-19.1-359.9-24.9-1795.8-24.9c-1707.7,0-1801.5,1.9-1791.9,34.5c30.6,99.6,413.5,1478,413.5,1487.5c0,5.7,618.4,9.6,1374.6,9.6h1374.6L6579.4-2764.1z"/></g></g>
</svg>