<svg width="147" height="182" xmlns="http://www.w3.org/2000/svg">

 <g>
  <title>background</title>
  <rect fill="none" id="canvas_background" height="184" width="149" y="-1" x="-1"/>
 </g>
 <g>
  <title>Layer 1</title>
  <g id="svg_1">
   <path id="svg_2" d="m61.852,144.149c0.026,-0.068 0.048,-0.136 0.059,-0.209c0.009,-0.06 0.008,-0.116 0.006,-0.177c0,-0.042 0.011,-0.084 0.004,-0.127l-3.506,-23.447c0,-0.001 0,-0.002 0,-0.004l-5.421,-36.246c-0.006,-0.038 -0.027,-0.069 -0.036,-0.107c-0.016,-0.058 -0.032,-0.111 -0.057,-0.164c-0.03,-0.067 -0.068,-0.126 -0.111,-0.184c-0.032,-0.043 -0.062,-0.086 -0.102,-0.125c-0.059,-0.057 -0.126,-0.102 -0.195,-0.143c-0.032,-0.02 -0.056,-0.05 -0.091,-0.065c-0.011,-0.006 -0.022,-0.004 -0.032,-0.009c-0.087,-0.036 -0.182,-0.052 -0.277,-0.063c-0.034,-0.004 -0.068,-0.019 -0.104,-0.02c-0.006,0 -0.012,-0.003 -0.019,-0.003l-9.156,0l-9.157,0c-0.006,0 -0.01,0.003 -0.016,0.003c-0.041,0.001 -0.079,0.017 -0.119,0.021c-0.091,0.014 -0.181,0.027 -0.263,0.062c-0.011,0.005 -0.022,0.003 -0.034,0.009c-0.035,0.016 -0.058,0.046 -0.09,0.065c-0.07,0.041 -0.138,0.086 -0.196,0.143c-0.038,0.039 -0.068,0.082 -0.101,0.125c-0.044,0.058 -0.081,0.116 -0.111,0.184c-0.024,0.053 -0.041,0.106 -0.057,0.164c-0.01,0.038 -0.03,0.069 -0.036,0.107l-5.421,36.246c0,0.002 0,0.003 0,0.004l-3.507,23.447c-0.007,0.043 0.005,0.085 0.004,0.127c-0.001,0.061 -0.003,0.117 0.006,0.177c0.012,0.073 0.034,0.141 0.06,0.209c0.019,0.05 0.035,0.1 0.062,0.148c0.042,0.074 0.099,0.138 0.158,0.199c0.025,0.026 0.038,0.06 0.066,0.084c0.009,0.006 0.017,0.008 0.024,0.014c0.045,0.035 0.098,0.057 0.147,0.085c0.062,0.033 0.118,0.07 0.183,0.091c0.01,0.003 0.018,0.011 0.028,0.014l18.083,5.176l0.002,0c0.009,0.003 0.017,0.003 0.023,0.005c0.088,0.022 0.175,0.035 0.26,0.035l0.001,0l0.001,0l0,0l0,0c0.087,0 0.174,-0.013 0.259,-0.035c0.008,-0.002 0.016,-0.002 0.022,-0.004c0.001,-0.001 0.002,-0.001 0.004,-0.001l18.083,-5.176c0.011,-0.003 0.018,-0.011 0.027,-0.014c0.065,-0.021 0.123,-0.058 0.184,-0.091c0.05,-0.028 0.103,-0.05 0.147,-0.085c0.007,-0.006 0.016,-0.008 0.024,-0.014c0.028,-0.024 0.04,-0.058 0.066,-0.084c0.059,-0.062 0.115,-0.125 0.158,-0.199c0.029,-0.048 0.044,-0.098 0.064,-0.148zm-27.685,-56.468l2.183,4.753l-3.797,6.043l1.614,-10.796zm18.907,10.796l-3.798,-6.043l2.184,-4.753l1.614,10.796zm-6.146,-5.89l-3.079,6.704l0,-11.605l3.079,4.901zm-3.079,26.444l0,-12.533l4.473,5.083l-4.473,7.45zm5.908,-5.818l5.602,6.365l-10.369,1.575l4.767,-7.94zm-4.73,-8.508l7.82,-0.665l-3.408,5.679l-4.412,-5.014zm-0.452,-2.039l3.669,-7.984l4.576,7.282l-8.245,0.702zm-2.797,-3.376l-3.079,-6.703l3.079,-4.901l0,11.604zm-0.727,3.376l-8.245,-0.702l4.577,-7.283l3.668,7.985zm-0.451,2.039l-4.412,5.014l-3.408,-5.679l7.82,0.665zm1.178,1.794l0,12.531l-4.473,-7.449l4.473,-5.082zm-1.14,14.654l-10.37,-1.575l5.603,-6.365l4.767,7.94zm0.039,2.1l-6.101,7.239l-4.501,-8.85l10.602,1.611zm1.101,1.905l0,19.489l-6.183,-12.151l6.183,-7.338zm2.071,0l6.181,7.338l-6.181,12.151l0,-19.489zm1.101,-1.905l10.601,-1.61l-4.501,8.85l-6.1,-7.24zm5.925,-11.903l3.302,-5.5l1.668,11.148l-4.97,-5.648zm-2.914,-21.01l-3.275,-5.213l5.67,0l-2.395,5.213zm-10.295,-0.001l-2.394,-5.212l5.668,0l-3.274,5.212zm-6.216,15.511l3.303,5.5l-4.97,5.648l1.667,-11.148zm1.679,26.361l-6.835,8.113l2.491,-16.652l4.344,8.539zm1.018,2.004l6.665,13.102l-14.262,-4.082l7.597,-9.02zm17.332,0l7.597,9.02l-14.262,4.082l6.665,-13.102zm1.018,-2.004l4.345,-8.539l2.49,16.652l-6.835,-8.113z"/>
   <path id="svg_3" d="m64.364,65.802c4.349,-0.513 7.458,-4.453 6.945,-8.802c-0.513,-4.348 -4.452,-7.456 -8.801,-6.944c0,0 -0.702,0.083 -1.915,0.307c-0.606,0.11 -1.336,0.231 -2.172,0.512c-0.833,0.268 -1.769,0.521 -2.755,0.965c-0.979,0.467 -2.047,0.896 -3.085,1.577c-0.514,0.331 -1.041,0.672 -1.58,1.021c-0.514,0.388 -1.021,0.803 -1.533,1.218c-0.25,0.213 -0.503,0.428 -0.756,0.646l-0.705,0.721c-0.462,0.491 -0.947,0.959 -1.376,1.482c-0.84,1.069 -1.645,2.154 -2.296,3.32l-0.506,0.853l-0.427,0.887c-0.262,0.6 -0.562,1.166 -0.768,1.769c-0.205,0.594 -0.409,1.184 -0.61,1.765c-0.187,0.58 -0.311,1.173 -0.445,1.74c-0.145,0.565 -0.244,1.129 -0.312,1.684c-0.074,0.553 -0.161,1.082 -0.208,1.601c-0.03,1.058 -0.122,2.016 -0.049,2.916c0.047,0.892 0.111,1.695 0.24,2.436c0.112,0.724 0.195,1.345 0.336,1.792c0.27,0.932 0.423,1.464 0.423,1.464c0.062,0.215 0.225,0.4 0.451,0.482c0.378,0.136 0.792,-0.061 0.928,-0.438c0,0 0.188,-0.521 0.516,-1.434c0.134,-0.479 0.384,-0.967 0.639,-1.52c0.23,-0.544 0.587,-1.16 0.955,-1.817c0.319,-0.665 0.823,-1.325 1.257,-2.017c0.241,-0.34 0.509,-0.673 0.765,-1.013c0.248,-0.344 0.523,-0.676 0.833,-0.991c0.306,-0.315 0.573,-0.652 0.886,-0.958c0.317,-0.294 0.637,-0.591 0.96,-0.891c0.309,-0.3 0.688,-0.536 1.02,-0.802l0.495,-0.394l0.537,-0.337c0.361,-0.212 0.677,-0.465 1.05,-0.635c0.356,-0.176 0.712,-0.351 1.063,-0.523c0.342,-0.171 0.714,-0.28 1.05,-0.421l0.499,-0.199l0.521,-0.131c0.327,-0.098 0.646,-0.192 0.96,-0.286c0.322,-0.056 0.637,-0.11 0.943,-0.163c0.568,-0.173 1.186,-0.139 1.685,-0.23c0.503,-0.093 1.021,-0.022 1.429,-0.079c0.408,-0.056 0.802,-0.003 1.109,-0.009c0.62,0.011 0.966,-0.027 0.966,-0.027l0.8,-0.091l0.038,-0.006z"/>
   <path id="svg_4" d="m25.053,63.451c0.216,-0.019 0.438,-0.036 0.666,-0.056c0.228,0.008 0.461,0.017 0.697,0.024c0.248,-0.017 0.498,-0.004 0.747,0.033c0.251,0.033 0.521,0.037 0.782,0.089c0.523,0.1 1.09,0.183 1.633,0.372c0.285,0.072 0.562,0.169 0.829,0.29c0.273,0.113 0.572,0.197 0.837,0.337c0.275,0.137 0.546,0.271 0.815,0.405c0.269,0.144 0.514,0.315 0.78,0.464c0.542,0.293 0.986,0.679 1.465,1.016c0.43,0.372 0.9,0.71 1.248,1.088c0.383,0.363 0.748,0.7 1.018,1.016c0.285,0.315 0.554,0.59 0.742,0.881c0.412,0.539 0.648,0.848 0.648,0.848c0.087,0.111 0.224,0.186 0.376,0.187c0.263,0.001 0.477,-0.211 0.478,-0.474c0,0 0.002,-0.389 0.004,-1.067c0.008,-0.329 -0.058,-0.761 -0.123,-1.268c-0.059,-0.521 -0.172,-1.074 -0.317,-1.681c-0.13,-0.617 -0.383,-1.239 -0.614,-1.941c-0.299,-0.655 -0.587,-1.394 -1.01,-2.087c-0.384,-0.727 -0.885,-1.413 -1.417,-2.12c-0.559,-0.679 -1.145,-1.393 -1.852,-1.985c-0.672,-0.639 -1.43,-1.195 -2.208,-1.73c-0.393,-0.256 -0.812,-0.465 -1.22,-0.693c-0.406,-0.233 -0.824,-0.436 -1.25,-0.6c-0.426,-0.165 -0.849,-0.332 -1.267,-0.479c-0.43,-0.115 -0.85,-0.229 -1.258,-0.34c-0.827,-0.225 -1.621,-0.276 -2.36,-0.372c-0.741,-0.076 -1.408,-0.04 -2.009,-0.032c-0.604,0.002 -1.107,0.083 -1.525,0.148c-0.839,0.125 -1.31,0.232 -1.31,0.232c-2.448,0.563 -4.18,2.853 -3.971,5.431c0.229,2.833 2.711,4.945 5.546,4.716l0.771,-0.063c0,0 0.251,-0.02 0.68,-0.123c0.216,-0.041 0.477,-0.139 0.77,-0.164c0.293,-0.022 0.632,-0.158 0.993,-0.175c0.358,-0.019 0.768,-0.149 1.186,-0.127z"/>
   <path id="svg_5" d="m76.885,77.037c-0.039,-0.379 -0.056,-0.796 -0.177,-1.262c-0.12,-0.462 -0.239,-0.96 -0.476,-1.466c-0.208,-0.512 -0.516,-1.011 -0.85,-1.51c-0.369,-0.467 -0.765,-0.949 -1.234,-1.336c-0.457,-0.412 -0.977,-0.729 -1.484,-1.034c-0.525,-0.266 -1.049,-0.521 -1.587,-0.668c-0.525,-0.186 -1.054,-0.277 -1.554,-0.369c-0.511,-0.042 -0.986,-0.112 -1.44,-0.095c-0.454,0 -0.875,0.029 -1.259,0.082c-0.76,0.106 -1.424,0.268 -1.802,0.401c-0.401,0.147 -0.632,0.232 -0.632,0.232c-0.066,0.025 -0.123,0.081 -0.146,0.156c-0.036,0.125 0.036,0.257 0.162,0.293c0,0 0.234,0.068 0.645,0.189c0.433,0.098 0.937,0.288 1.561,0.558c0.312,0.116 0.636,0.266 0.961,0.445c0.336,0.146 0.653,0.37 0.982,0.56c0.306,0.239 0.639,0.426 0.911,0.694c0.294,0.237 0.531,0.524 0.778,0.772c0.212,0.282 0.419,0.548 0.56,0.834c0.18,0.258 0.271,0.549 0.375,0.805c0.094,0.263 0.183,0.507 0.217,0.76c0.087,0.229 0.083,0.483 0.127,0.698c0.063,0.209 0.022,0.441 0.063,0.623c0.036,0.183 0.016,0.363 0.028,0.508c0.006,0.289 0.039,0.459 0.039,0.459l0.102,0.539c0.201,1.031 1.028,1.875 2.127,2.045c1.399,0.218 2.712,-0.741 2.928,-2.141c0,0 0.047,-0.296 0.076,-0.819c0.018,-0.26 0.042,-0.573 -0.001,-0.953z"/>
  </g>
  <g stroke="null" id="svg_18"/>
  <g stroke="null" transform="matrix(1.8054385371953103,0,0,2.0335493224922985,-227.95855065219124,-88.56200362528463) " id="svg_9">
   <polygon stroke="null" id="svg_19" points="195.66865211725235,93.28075408935547 195.66865211725235,58.28080749511719 180.66865211725235,43.28089141845703 125.66857582330704,43.28089141845703 125.66857582330704,133.28118896484375 195.66865211725235,133.28118896484375 195.66865211725235,118.28102111816406 190.66865211725235,118.28102111816406 190.66865211725235,128.28118896484375 130.66865211725235,128.28118896484375 130.66865211725235,48.28086853027344 175.66865211725235,48.28086853027344 175.66865211725235,63.280784606933594 190.66865211725235,63.280784606933594 190.66865211725235,93.28075408935547 "/>
  </g>
  <g stroke="null" transform="matrix(1.7486144248279432,0,0,1.8497578123700227,-228.52763905722824,-92.21184370968325) " id="svg_11">
   <g stroke="null" id="svg_24">
    <path stroke="null" id="svg_21" d="m179.474394,125.405114l6.265,0l0,2.769l-9.864,0l0,-14.93l3.599,0l0,12.161z"/>
    <path stroke="null" id="svg_22" d="m199.152394,121.016114c0,1.456 -0.27,2.745 -0.81,3.866s-1.308,1.983 -2.302,2.589c-0.995,0.604 -2.128,0.907 -3.399,0.907s-2.399,-0.292 -3.384,-0.877c-0.984,-0.584 -1.752,-1.42 -2.302,-2.507c-0.551,-1.087 -0.839,-2.334 -0.867,-3.742l0,-0.841c0,-1.463 0.268,-2.754 0.805,-3.871c0.536,-1.118 1.305,-1.98 2.307,-2.589s2.142,-0.913 3.42,-0.913c1.265,0 2.393,0.301 3.384,0.902s1.762,1.458 2.312,2.568c0.55,1.111 0.829,2.385 0.835,3.82l0,0.688l0.001,0zm-3.661,-0.625c0,-1.483 -0.248,-2.61 -0.743,-3.379c-0.496,-0.77 -1.205,-1.153 -2.128,-1.153c-1.805,0 -2.758,1.354 -2.861,4.061l-0.01,1.097c0,1.463 0.243,2.588 0.728,3.374s1.207,1.179 2.164,1.179c0.909,0 1.61,-0.386 2.102,-1.158s0.742,-1.884 0.749,-3.333l0,-0.688l-0.001,0z"/>
    <path stroke="null" id="svg_23" d="m212.733394,126.328114c-0.554,0.615 -1.364,1.111 -2.43,1.487s-2.235,0.563 -3.507,0.563c-1.955,0 -3.517,-0.598 -4.686,-1.794s-1.794,-2.861 -1.876,-4.994l-0.01,-1.292c0,-1.47 0.26,-2.753 0.779,-3.851c0.52,-1.097 1.263,-1.94 2.23,-2.532c0.967,-0.591 2.086,-0.887 3.358,-0.887c1.859,0 3.303,0.425 4.333,1.276c1.028,0.851 1.628,2.121 1.799,3.81l-3.466,0c-0.123,-0.834 -0.39,-1.429 -0.8,-1.784s-0.991,-0.533 -1.743,-0.533c-0.902,0 -1.6,0.383 -2.092,1.148s-0.742,1.859 -0.749,3.281l0,0.902c0,1.49 0.254,2.609 0.764,3.357c0.509,0.749 1.311,1.123 2.405,1.123c0.937,0 1.634,-0.208 2.092,-0.625l0,-2.317l-2.502,0l0,-2.472l6.101,0l0,6.134z"/>
   </g>
  </g>
 </g>
</svg>